<?xml version="1.0" encoding="utf-8"?>
<!-- Generator: Adobe Illustrator 25.2.0, SVG Export Plug-In . SVG Version: 6.00 Build 0)  -->
<svg version="1.1" id="Layer_1" xmlns="http://www.w3.org/2000/svg" xmlns:xlink="http://www.w3.org/1999/xlink" x="0px" y="0px"
	 viewBox="0 0 48 48" style="enable-background:new 0 0 48 48;" xml:space="preserve">
<style type="text/css">
	.st0{fill:#50649C;}
	.st1{fill:#FFFFFF;}
</style>
<g id="_01_-_PS">
	<path class="st0" d="M10,7H38c1.7,0,3,1.3,3,3V38c0,1.7-1.3,3-3,3H10c-1.7,0-3-1.3-3-3V10C7,8.4,8.4,7,10,7z"/>
	<path class="st1" d="M18.3,16v16.7h-3.1V16H18.3z"/>
	<path class="st1" d="M32.8,15v14.2c0,1.1,0,2.3,0,3.4H30c-0.1-0.5-0.1-1-0.1-1.5c-0.7,1.1-1.8,1.8-3.7,1.8C23,33,21,30.4,21,26.6
		s2.1-6.6,5.6-6.6c1.9,0,2.9,0.7,3.2,1.3V15H32.8z M24.1,26.5c0,2.6,1.1,4,2.9,4c2.5,0,2.9-2,2.9-4.1c0-2.3-0.4-4-2.8-4
		C25.2,22.4,24.1,23.9,24.1,26.5z"/>
</g>
</svg>
