<?xml version="1.0" encoding="utf-8"?>
<!-- Generator: Adobe Illustrator 25.2.0, SVG Export Plug-In . SVG Version: 6.00 Build 0)  -->
<svg version="1.1" id="Layer_1" xmlns="http://www.w3.org/2000/svg" xmlns:xlink="http://www.w3.org/1999/xlink" x="0px" y="0px"
	 viewBox="0 0 48 48" style="enable-background:new 0 0 48 48;" xml:space="preserve">
<style type="text/css">
	.st0{fill:#50649C;}
	.st1{fill:#FFFFFF;}
</style>
<g id="_01_-_PS">
	<path class="st0" d="M10,7H38c1.7,0,3,1.3,3,3V38c0,1.7-1.3,3-3,3H10c-1.7,0-3-1.3-3-3V10C7,8.4,8.4,7,10,7z"/>
	<path class="st1" d="M18.2,28.6l-1.5,4.2h-3.1l5.8-16.7h3.9l6,16.7H26l-1.5-4.2H18.2z M23.8,26c-1.3-3.8-2.1-6.1-2.5-7.5l0,0
		c-0.4,1.5-1.3,4.2-2.4,7.5H23.8z"/>
	<path class="st1" d="M31.4,15.2h3v2.9h-3L31.4,15.2z M31.4,20.4h3v12.4h-3L31.4,20.4z"/>
</g>
</svg>
