<?xml version="1.0" encoding="utf-8"?>
<!-- Generator: Adobe Illustrator 25.2.0, SVG Export Plug-In . SVG Version: 6.00 Build 0)  -->
<svg version="1.1" id="Layer_1" xmlns="http://www.w3.org/2000/svg" xmlns:xlink="http://www.w3.org/1999/xlink" x="0px" y="0px"
	 viewBox="0 0 48 48" style="enable-background:new 0 0 48 48;" xml:space="preserve">
<style type="text/css">
	.st0{fill:#50649C;}
	.st1{fill:#FFFFFF;}
</style>
<g id="_01_-_PS">
	<path class="st0" d="M10,7H38c1.7,0,3,1.3,3,3V38c0,1.7-1.3,3-3,3H10c-1.7,0-3-1.3-3-3V10C7,8.4,8.4,7,10,7z"/>
	<path class="st1" d="M11.8,15.5h6.7c3.4,0,5.8,1.9,5.8,5c0,3.5-2.6,5.2-5.9,5.2h-3.5v6.4h-3.1V15.5z M14.9,23.2H18
		c1.9,0,3-0.8,3-2.6S19.8,18,18,18h-3.1L14.9,23.2z"/>
	<path class="st1" d="M28.6,28.5c0.3,1.1,1.4,1.9,2.6,1.7c1.5,0,2-0.6,2-1.4s-0.5-1.3-2.5-1.8c-3.9-1-4.6-2.1-4.6-3.9
		s1.3-3.7,4.8-3.7s4.8,2,5,3.7h-2.9c-0.1-0.6-0.5-1.5-2.2-1.5c-1.3,0-1.8,0.6-1.8,1.2s0.4,1.1,2.5,1.6c4,0.9,4.7,2.3,4.7,4.1
		c0,2.1-1.6,3.9-5.2,3.9s-5.1-1.8-5.4-4L28.6,28.5z"/>
</g>
</svg>
